<svg id="Lag_1" data-name="Lag 1" xmlns="http://www.w3.org/2000/svg" viewBox="0 0 283.46 283.46"><defs><style>.cls-1{fill:#c9e6fa;}.cls-2{fill:#003865;}</style></defs><path class="cls-1" d="M297.64,233.71c-74.33,0-134.8,60.47-134.8,134.8S223.31,503.3,297.64,503.3s134.8-60.47,134.8-134.79S372,233.71,297.64,233.71" transform="translate(-155.91 -226.77)"/><path class="cls-2" d="M297.64,503.3c-74.33,0-134.8-60.47-134.8-134.8s60.47-134.79,134.8-134.79,134.8,60.47,134.8,134.79S372,503.3,297.64,503.3m0-276.53c-78.15,0-141.73,63.58-141.73,141.73s63.58,141.74,141.73,141.74S439.37,446.66,439.37,368.5,375.79,226.77,297.64,226.77" transform="translate(-155.91 -226.77)"/><path class="cls-2" d="M393.05,372.9c-.37-15.35-2.94-33.47-17.66-39.15-14.62-6.25-29.86-.29-42.27,6.93,8.9-13.42,19.86-27.95,17.31-46.9-1.49-9.42-7.66-16-15.91-19.75-1.21-.6-3.8-1.55-3.8-1.55a92.82,92.82,0,0,0-10.06-2.79c-7-1.72-16.53-1.92-23.17-2.26-6.63.34-16.18.54-23.16,2.26a92.27,92.27,0,0,0-10.05,2.79s-2.6.95-3.81,1.55c-8.25,3.71-14.42,10.33-15.91,19.75-2.55,19,8.41,33.48,17.31,46.9-12.41-7.22-27.66-13.18-42.27-6.93-14.72,5.68-17.29,23.8-17.66,39.15-.62,26.12,3.7,43.56,12.12,52.61,8.9,9.58,21.84,14.43,35.83,11.26,11.07-3.12,24.82-8.76,28.48-21.64l.62-2.4a22,22,0,0,0-6.25-19.92c-4.9-4.23-11.59-5.82-17.46-3.65-6.46,2.38-11.45,7.45-12,14.71-.2,4.19,1.44,7.75,3.31,10.92a20.36,20.36,0,0,1-4.18,2.07c-9.87,3.61-21.79-.34-29.05-7.07a31.64,31.64,0,0,1-8.18-29c2.89-11.59,10-20.59,17.85-27l.19-.19c12-9,32.6-9.36,47.28-4.47a34.93,34.93,0,0,1,5.67,2.59c-6.92-11.44-9.67-26.69-8.27-40.35,0,0,.06-.55.14-1.39a77.55,77.55,0,0,1,4.86-17.84c4.2-11.14,14.9-20.42,24.56-24.31,9.67,3.89,20.37,13.17,24.57,24.31A77.55,77.55,0,0,1,326.92,310c.08.84.14,1.39.14,1.39,1.4,13.66-1.35,28.91-8.27,40.35a35.34,35.34,0,0,1,5.67-2.59c14.68-4.89,35.31-4.57,47.28,4.47l.19.19c7.84,6.4,15,15.4,17.85,27a31.64,31.64,0,0,1-8.18,29c-7.26,6.73-19.18,10.68-29.05,7.07a20.36,20.36,0,0,1-4.18-2.07c1.87-3.17,3.51-6.73,3.31-10.92-.53-7.26-5.51-12.33-12-14.71-5.87-2.17-12.55-.58-17.46,3.65A22,22,0,0,0,316,412.73l.62,2.4C320.28,428,334,433.65,345.1,436.77c14,3.17,26.93-1.68,35.83-11.26,8.41-9.05,12.74-26.49,12.12-52.61" transform="translate(-155.91 -226.77)"/><path class="cls-2" d="M297.49,426.08c-1.68,10.87-8.93,20.45-19.37,23.87l1.21,2.59c3.51,7.74,11.19,12,18.16,14.92,7-2.88,14.66-7.18,18.17-14.92l1.2-2.59c-10.43-3.42-17.68-13-19.37-23.87" transform="translate(-155.91 -226.77)"/><polygon class="cls-2" points="143.51 139.41 143.51 113.18 139.67 113.18 139.67 139.41 112.98 139.41 112.98 143.26 139.67 143.26 139.67 185.61 143.51 185.61 143.51 143.26 170.2 143.26 170.2 139.41 143.51 139.41"/></svg>